<?xml version="1.0" encoding="utf-8"?>
<!-- Generator: Adobe Illustrator 24.1.2, SVG Export Plug-In . SVG Version: 6.00 Build 0)  -->
<svg version="1.1" id="Capa_1" xmlns="http://www.w3.org/2000/svg" xmlns:xlink="http://www.w3.org/1999/xlink" x="0px" y="0px"
	 viewBox="0 0 200 200" style="enable-background:new 0 0 200 200;" xml:space="preserve">
<style type="text/css">
	.st0{fill:#A3A3A3;}
</style>
<g>
	<g>
		<path class="st0" d="M100,10.9c-17.5,0-34.1,7.7-45.4,21.2c-1.2,1.5-1,3.7,0.4,4.9c1.5,1.2,3.7,1,4.9-0.4
			c10-11.9,24.5-18.7,40-18.7c28.8,0,52.2,23.4,52.2,52.2c0,20.1-11.2,38.1-29.4,46.9c-1.2,0.6-2,1.8-2,3.1v6.3h-17.4v-25.2
			c9.8-1.1,18.6-6.8,23.6-15.5c5.6-9.6,5.6-21.6,0-31.3c-0.6-1.1-1.8-1.7-3-1.7c0,0,0,0,0,0c-9.4,0-18.2,4.3-24.1,11.3
			c-5.9-7.1-14.7-11.3-24.1-11.3c0,0,0,0,0,0c-1.2,0-2.4,0.7-3,1.7c-5.6,9.7-5.6,21.7,0,31.3c5,8.6,13.8,14.3,23.6,15.5v25.2H79.1
			v-6.3c0-1.3-0.8-2.5-2-3.1c-18.1-8.8-29.4-26.8-29.4-46.9c0-2.3,0.2-4.6,0.5-6.9c0.3-1.9-1.1-3.7-3-3.9c-1.9-0.2-3.7,1.1-3.9,3
			c-0.3,2.6-0.5,5.2-0.5,7.8c0,11.3,3.2,22.3,9.2,31.8c5.5,8.6,13.1,15.6,22.1,20.4v4.8c-4,1.4-7,5.3-7,9.8c0,4.5,2.9,8.4,7,9.8v8.2
			c-4,1.4-7,5.3-7,9.8c0,4.6,3,8.6,7.2,9.9c1.4,8.2,8.6,14.4,17.1,14.4h20.9c8.6,0,15.7-6.2,17.1-14.4c4.2-1.4,7.2-5.3,7.2-9.9
			c0-4.5-2.9-8.4-7-9.8v-8.2c4-1.4,7-5.3,7-9.8c0-4.5-2.9-8.4-7-9.8v-4.8c9-4.8,16.6-11.8,22.1-20.4c6.1-9.5,9.2-20.5,9.2-31.8
			C159.1,37.5,132.6,10.9,100,10.9L100,10.9z M122,59.7c3.3,7.2,3,15.6-1,22.5c-4,6.9-11.1,11.4-19,12.1c-3.3-7.2-3-15.6,1-22.5
			C107,64.9,114.2,60.4,122,59.7z M78.9,82.3c-4-6.9-4.3-15.4-1-22.5c7.3,0.6,13.9,4.5,18,10.5c-3.6,7.4-4.1,15.8-1.6,23.5
			C87.9,92.2,82.3,88.1,78.9,82.3L78.9,82.3z M120.9,147.3v7H79.1v-7H120.9z M110.4,182.1H89.6c-4.5,0-8.4-2.9-9.8-7h40.5
			C118.8,179.2,115,182.1,110.4,182.1z M124.4,168.2H75.6c-1.9,0-3.5-1.6-3.5-3.5c0-1.9,1.6-3.5,3.5-3.5h48.7c1.9,0,3.5,1.6,3.5,3.5
			C127.8,166.6,126.3,168.2,124.4,168.2z M124.4,140.4H75.6c-1.9,0-3.5-1.6-3.5-3.5s1.6-3.5,3.5-3.5h48.7c1.9,0,3.5,1.6,3.5,3.5
			S126.3,140.4,124.4,140.4z"/>
		<path class="st0" d="M30.4,66.6h-7c-1.9,0-3.5,1.6-3.5,3.5c0,1.9,1.6,3.5,3.5,3.5h7c1.9,0,3.5-1.6,3.5-3.5
			C33.9,68.2,32.3,66.6,30.4,66.6z"/>
		<path class="st0" d="M48.3,116.8l-4.9,4.9c-1.4,1.4-1.4,3.6,0,4.9c0.7,0.7,1.6,1,2.5,1s1.8-0.3,2.5-1l4.9-4.9
			c1.4-1.4,1.4-3.6,0-4.9C51.9,115.5,49.7,115.5,48.3,116.8z"/>
		<path class="st0" d="M151.7,116.8c-1.4-1.4-3.6-1.4-4.9,0c-1.4,1.4-1.4,3.6,0,4.9l4.9,4.9c0.7,0.7,1.6,1,2.5,1
			c0.9,0,1.8-0.3,2.5-1c1.4-1.4,1.4-3.6,0-4.9L151.7,116.8z"/>
		<path class="st0" d="M176.5,66.6h-7c-1.9,0-3.5,1.6-3.5,3.5c0,1.9,1.6,3.5,3.5,3.5h7c1.9,0,3.5-1.6,3.5-3.5
			C180,68.2,178.5,66.6,176.5,66.6z"/>
		<path class="st0" d="M149.2,24.4c0.9,0,1.8-0.3,2.5-1l4.9-4.9c1.4-1.4,1.4-3.6,0-4.9c-1.4-1.4-3.6-1.4-4.9,0l-4.9,4.9
			c-1.4,1.4-1.4,3.6,0,4.9C147.4,24,148.3,24.4,149.2,24.4L149.2,24.4z"/>
		<path class="st0" d="M48.3,23.3c0.7,0.7,1.6,1,2.5,1s1.8-0.3,2.5-1c1.4-1.4,1.4-3.6,0-4.9l-4.9-4.9c-1.4-1.4-3.6-1.4-4.9,0
			c-1.4,1.4-1.4,3.6,0,4.9L48.3,23.3z"/>
		<path class="st0" d="M49,44.2c-1.9,0-3.5,1.6-3.5,3.5c0,1.9,1.6,3.5,3.5,3.5c1.9,0,3.5-1.6,3.5-3.5C52.5,45.7,51,44.2,49,44.2
			L49,44.2z"/>
	</g>
</g>
</svg>
