<?xml version="1.0" encoding="utf-8"?>
<!-- Generator: Adobe Illustrator 24.1.2, SVG Export Plug-In . SVG Version: 6.00 Build 0)  -->
<svg version="1.1" id="Capa_1" xmlns="http://www.w3.org/2000/svg" xmlns:xlink="http://www.w3.org/1999/xlink" x="0px" y="0px"
	 viewBox="0 0 200 200" style="enable-background:new 0 0 200 200;" xml:space="preserve">
<style type="text/css">
	.st0{enable-background:new    ;}
	.st1{fill:#A3A3A3;}
</style>
<g class="st0">
	<path class="st1" d="M188.1,165.6h-11.9v-9.5c3.1-0.1,6.1-0.4,8.6-2.1c3.4-2.4,5-6.7,5-13.8c0-7.8-2.6-16.9-6.3-23.3
		c4.9-5,7.6-11.5,7.6-18.6c0-13.1-9.7-24.4-22.7-26.3c-1.9-3.9-5-7.2-8.8-9.3c-1.5-13.4-12.8-23.5-26.4-23.5c-3.5,0-6.9,0.7-10.1,2
		c-2.8-5.1-5.6-7.5-8.7-7.5c-3.1,0-5.9,2.5-8.7,7.7c-2.2,4.1-4.4,9.9-6.3,16.9c-1.3,4.8-2.4,9.9-3.4,15.1
		c-4.7-2.8-10.1-4.2-15.6-4.2c-1.6,0-3.2,0.1-4.8,0.4V49.4c0-8.9-5.6-17-14-20c-1.4-0.5-2.9,0.2-3.4,1.6c-0.5,1.4,0.2,2.9,1.6,3.4
		c6.3,2.3,10.5,8.3,10.5,15V71c-5.2,1.8-9.7,4.9-13.3,9v-4.4l5.1-5.1c1-1,1-2.7,0-3.8c-1-1-2.7-1-3.8,0l-1.4,1.4V51.8
		c0-1.5-1.2-2.7-2.7-2.7c-1.5,0-2.7,1.2-2.7,2.7v4l-2.7-2.7c-1-1-2.7-1-3.8,0c-1,1-1,2.7,0,3.8l6.5,6.5V84
		c-3.9-5.6-8.5-9.7-13.3-10.2V49.4c0-6.7,4.2-12.7,10.5-15c1.4-0.5,2.1-2,1.6-3.4c-0.5-1.4-2-2.1-3.4-1.6c-8.4,3.1-14,11.1-14,20
		v25.3c-5.1,2.3-10.4,8.6-14.9,17.9c-5.5,11.4-8.8,25.4-8.8,37.5c0,12.3,2.7,19.9,8.4,23.9c4.7,3.3,10.7,3.5,17.1,3.6v8H11.6
		c-1.5,0-2.7,1.2-2.7,2.7c0,1.5,1.2,2.7,2.7,2.7h176.5c1.5,0,2.7-1.2,2.7-2.7C190.8,166.8,189.6,165.6,188.1,165.6L188.1,165.6z
		 M59.6,151.7c1.9,0.3,3.8,0.4,5.8,0.4v13.5h-8.6v-11.4C57.9,153.5,58.8,152.7,59.6,151.7L59.6,151.7z M70.8,152.1
		c2.4,0,4.7-0.1,6.9-0.6v14h-6.9V152.1z M98.9,136.1c2.5,3.1,5.6,4.3,8.8,4.7c-3.4,2.1-7.2,3.3-11.3,3.3c-2.9,0-5.7-0.6-8.3-1.7
		c1-3,1.5-6.7,1.5-11.3c0-0.5,0-0.9,0-1.4c1.8-0.6,3.6-1.3,5.3-2.2C95.9,131.2,97.2,134,98.9,136.1z M83.1,149.4
		c0.9-0.6,1.7-1.4,2.4-2.2c3.2,1.4,6.5,2.2,10,2.3v16.2H83L83.1,149.4z M100.9,149.1c3.9-0.7,7.6-2.2,10.8-4.5v21h-10.8V149.1z
		 M117.1,141.1c2.1,0,4.2-0.2,6.1-0.7v25.2h-6.1V141.1z M134.3,137.7v27.9h-5.8v-28c0.5-0.4,0.9-0.9,1.4-1.5c0.5-0.6,1-1.4,1.5-2.2
		C132.3,135.3,133.2,136.6,134.3,137.7L134.3,137.7z M139.7,141.3c2.1,1,4.4,1.7,6.8,2v22.3h-6.8V141.3z M151.8,143.3
		c1.9-0.2,3.8-0.7,5.6-1.5c0.2,6.1,1.8,10,5,12.2c2.5,1.7,5.4,2.1,8.6,2.1v9.5h-19.1L151.8,143.3L151.8,143.3z M181.7,149.6
		c-1.3,0.9-3.2,1.1-5.5,1.2v-4.8c0,0,0.1-0.1,0.1-0.1l4.2-4.2c1-1,1-2.7,0-3.8c-1-1-2.7-1-3.8,0l-0.6,0.6v-7.6
		c0-1.5-1.2-2.7-2.7-2.7c-1.5,0-2.7,1.2-2.7,2.7v20c-2.3,0-4.2-0.3-5.5-1.2c-1.8-1.3-2.7-4.3-2.7-9.4c0-5.8,1.6-12.6,4.3-18.2
		c2.7-5.7,5.5-7.8,6.6-7.8c1.1,0,3.8,2.1,6.6,7.8c2.7,5.6,4.3,12.4,4.3,18.2C184.4,145.3,183.5,148.3,181.7,149.6L181.7,149.6z
		 M185.7,98.4c0,5.3-1.9,10.3-5.4,14.2c-2.1-2.3-4.4-3.6-6.7-3.6c-1,0-2.1,0.3-3.1,0.8V81.4c0-1.2-0.1-2.3-0.3-3.4
		C179.2,80.5,185.7,88.8,185.7,98.4z M133.5,77.7c1.9-6.9,8.5-12.2,15.6-12.2c8.8,0,16,7.2,16,16v33.3c-3.8,5.3-6.7,13.4-7.5,21
		c0,0,0,0,0,0c-1.8,1.1-3.7,1.8-5.7,2.2v-15.6l5.1-5.1c1-1,1-2.7,0-3.8c-1-1-2.7-1-3.8,0l-1.4,1.4V98.5c0-1.5-1.2-2.7-2.7-2.7
		c-1.5,0-2.7,1.2-2.7,2.7v4l-2.7-2.7c-1-1-2.7-1-3.8,0c-1,1-1,2.7,0,3.8l6.5,6.5v27.9c-5.7-1-10.6-5-12.5-10.7c0,0,0,0,0,0
		c1.3-5.2,1.9-12,1.9-21C135.9,97.2,135,87.3,133.5,77.7L133.5,77.7z M114.4,39.1c0.6,0,3.7,2.2,7.6,13.2c0.5,1.4,2,2.1,3.4,1.6
		c1.4-0.5,2.1-2,1.6-3.4c-0.6-1.6-1.1-3-1.7-4.4c2.5-1,5.1-1.5,7.8-1.5c9.9,0,18.2,6.7,20.6,15.9c-1.5-0.3-3-0.5-4.6-0.5
		c-6.9,0-13.3,3.4-17.2,8.7c-0.4-2-0.8-3.9-1.3-5.8c-0.3-1.4-1.8-2.3-3.2-2c-1.4,0.3-2.3,1.8-2,3.2c3.2,13.3,5.1,28.6,5.1,41.9
		c0,14-1.5,22.6-4.7,26.5c-2,2.5-4.7,2.9-8.7,3v-13.6l8.6-8.6c1-1,1-2.7,0-3.8c-1-1-2.7-1-3.8,0l-4.9,4.9V92.4
		c0-1.5-1.2-2.7-2.7-2.7c-1.5,0-2.7,1.2-2.7,2.7v5.6l-3.8-3.8c-1-1-2.7-1-3.8,0c-1,1-1,2.7,0,3.8l7.6,7.6c0,0,0,0,0,0v30.3
		c-4.1-0.1-6.7-0.5-8.7-3c-3.2-3.9-4.7-12.5-4.7-26.5c0-14.9,2.3-32.3,6.2-46.5C109.2,42.8,113.6,39.1,114.4,39.1z M80.3,74.6
		c5.3,0,10.4,1.6,14.7,4.6c-1.4,9.1-2.1,18.5-2.1,27c0,6.2,0.3,11.4,0.9,15.7c-1.5,0.9-3,1.7-4.7,2.3c-0.9-7.2-3-14.6-6.2-21.1v-6.5
		l5.6-5.6c1-1,1-2.7,0-3.8c-1-1-2.7-1-3.8,0L83,89.1V86c0-1.5-1.2-2.7-2.7-2.7s-2.7,1.2-2.7,2.7v8.5c-3.1-3.8-6.4-5.8-9.5-5.8
		c-3.8,0-7.3,2.8-10.3,6.8c-0.5-1.2-1.1-2.5-1.7-3.7C59.7,81.5,69.4,74.6,80.3,74.6L80.3,74.6z M20.6,149.7
		c-2.6-1.8-6.1-5.8-6.1-19.5c0-11.3,3.1-24.4,8.3-35.2c4.7-9.7,10.3-15.9,14.5-15.9c4.3,0,11.5,7.5,17.1,21.9
		c-1.7,3.1-3.1,6.5-4.2,9.7c-0.5,1.4,0.3,2.9,1.7,3.4c1.4,0.5,2.9-0.3,3.4-1.7c3.8-11.4,9.7-18.4,12.9-18.4c2.2,0,6.3,3.6,10.1,11.4
		c3.8,7.8,6.1,17.5,6.1,25.7c0,7.4-1.4,11.9-4.2,13.9c-2.2,1.5-5.5,1.8-9.3,1.8v-8.2l8.6-8.6c1-1,1-2.7,0-3.8c-1-1-2.7-1-3.8,0
		l-4.9,4.9V118c0-1.5-1.2-2.7-2.7-2.7c-1.5,0-2.7,1.2-2.7,2.7v28.8c-3.8,0-7.1-0.3-9.3-1.8c-2.8-2-4.2-6.5-4.2-13.9
		c0-2.2,0.2-4.4,0.4-6.7c0.2-1.5-0.8-2.8-2.3-3c-1.5-0.2-2.8,0.8-3,2.3c-0.3,2.5-0.5,5-0.5,7.4c0,9.4,2.1,15.2,6.5,18.2
		c0.2,0.2,0.4,0.3,0.7,0.4c-3.4,2.3-8.2,2.5-13.9,2.5v-27.8l4.1-4.1c1-1,1-2.7,0-3.8c-1-1-2.7-1-3.8,0l-0.3,0.3v-7.3
		c0-1.5-1.2-2.7-2.7-2.7s-2.7,1.2-2.7,2.7v22.8l-3.4-3.4c-1-1-2.7-1-3.8,0c-1,1-1,2.7,0,3.8l6.8,6.8c0.1,0.1,0.2,0.2,0.4,0.3v12.4
		C28.9,152.3,24,152,20.6,149.7L20.6,149.7z M39.9,157.6c4.1,0,8.1-0.1,11.6-1.1v9.1H39.9V157.6z"/>
</g>
</svg>
