<?xml version="1.0" encoding="utf-8"?>
<!-- Generator: Adobe Illustrator 24.1.2, SVG Export Plug-In . SVG Version: 6.00 Build 0)  -->
<svg version="1.1" id="Capa_1" xmlns="http://www.w3.org/2000/svg" xmlns:xlink="http://www.w3.org/1999/xlink" x="0px" y="0px"
	 viewBox="0 0 200 200" style="enable-background:new 0 0 200 200;" xml:space="preserve">
<style type="text/css">
	.st0{fill:#A3A3A3;}
</style>
<path id="XMLID_442_" class="st0" d="M68.4,85.3c-9.6,0-18.8,4.7-25.9,13.3c-6.6,8-10.4,18.1-10.4,27.9c0,20,16.3,36.3,36.3,36.3
	c5.3,0,10.4-1.1,15.1-3.3c1.8-0.8,2.6-3,1.8-4.8c-0.8-1.8-3-2.6-4.8-1.8c-3.8,1.8-7.9,2.6-12.1,2.6c-16.1,0-29.1-13.1-29.1-29.1
	c0-15.7,12.7-34,29.1-34s29.1,18.3,29.1,34c0,1.4-0.1,2.8-0.3,4.2c-0.3,2,1.1,3.8,3.1,4.1c2,0.3,3.8-1.1,4.1-3.1
	c0.2-1.7,0.4-3.4,0.4-5.2c0-9.7-3.8-19.9-10.4-27.9C87.2,90,77.9,85.3,68.4,85.3L68.4,85.3z"/>
<path id="XMLID_454_" class="st0" d="M121.6,95.6c-6.5-10.5-10.2-22.2-10.8-33.8c-0.5-10.9-5.1-21.1-13-28.6
	c-5.3-5.1-11.7-8.6-18.6-10.4v-5C79.1,11.8,74.3,7,68.4,7s-10.8,4.8-10.8,10.8v5c-7,1.8-13.4,5.3-18.6,10.4
	c-7.9,7.5-12.5,17.7-13,28.5c-0.6,11.9-4.2,23.5-10.4,33.3c-6.4,10-9.7,21.7-9.7,33.6c0.1,16.7,6.7,32.5,18.7,44.3
	c11.8,11.6,27.4,18,43.8,18c0.3,0,0.6,0,0.8,0c16.5-0.2,32-6.8,43.6-18.6c11.6-11.8,18-27.4,18-43.9
	C130.9,116.8,127.7,105.4,121.6,95.6L121.6,95.6z M64.8,17.8c0-2,1.6-3.6,3.6-3.6s3.6,1.6,3.6,3.6v3.8c-1.2-0.1-2.4-0.2-3.6-0.2
	s-2.4,0.1-3.6,0.2V17.8z M69.1,183.8c-14.8,0.2-28.9-5.5-39.5-15.9C19,157.4,13.1,143.5,13,128.7c0-10.6,2.9-20.9,8.6-29.8
	C28.5,88,32.5,75.3,33.1,62.1c0.4-9,4.3-17.4,10.8-23.7c6.7-6.5,15.6-9.7,24.4-9.7s17.7,3.2,24.4,9.7c6.5,6.3,10.4,14.7,10.8,23.8
	c0.6,12.8,4.7,25.7,11.9,37.2c5.4,8.7,8.3,18.8,8.3,29.1C123.7,158.6,99.2,183.4,69.1,183.8L69.1,183.8z"/>
<path id="XMLID_467_" class="st0" d="M187.2,114.8c-3.2-10.4-3.7-21.6-1.4-32.5c2.2-10,0.4-20.3-4.9-29.1c-2.2-3.6-4.9-6.8-8.1-9.6
	c-1.9-1.6-4.4-2.1-6.7-1.4c-2.4,0.7-4.1,2.6-4.8,5l-13.5,50.2c-0.7,2.8,0,5.8,2,7.8c7.8,7.9,11.4,21.5,8.4,32.5
	c-2.9,10.9-12.1,18.9-23.3,20.4c-2.2,0.3-3.9,1.8-4.5,3.9l-6,22.2c-0.4,1.6-0.1,3.3,0.9,4.6c1,1.3,2.5,2.1,4.2,2.2
	c0.4,0,0.8,0,1.2,0c12.5,0,24.8-4.1,35-11.5c10.6-7.8,18.4-19.1,21.9-31.8C190.7,136.8,190.5,125.4,187.2,114.8L187.2,114.8z
	 M180.8,145.8c-6,22.2-25.8,37.5-48.6,38l5-18.8c13.6-2.2,24.5-12.1,28.1-25.5c3.6-13.5-0.6-29.7-10.3-39.5
	c-0.2-0.2-0.3-0.5-0.2-0.9l13.4-50.1c2.6,2.2,4.7,4.8,6.5,7.7c4.4,7.2,5.8,15.7,4,23.9c-2.6,12.1-2.1,24.6,1.5,36.2
	C183.2,126.3,183.4,136.3,180.8,145.8z"/>
<path id="XMLID_468_" class="st0" d="M94.6,142.5c-0.9,0-1.9,0.4-2.5,1.1c-0.7,0.7-1,1.6-1,2.5c0,0.9,0.4,1.9,1,2.5
	c0.7,0.7,1.6,1.1,2.5,1.1c0.9,0,1.9-0.4,2.5-1.1c0.7-0.7,1.1-1.6,1.1-2.5c0-0.9-0.4-1.9-1.1-2.5C96.5,142.9,95.5,142.5,94.6,142.5z"
	/>
</svg>
